<svg xmlns="http://www.w3.org/2000/svg" width="1440" height="560" preserveAspectRatio="none" viewBox="0 0 1440 560"><g mask="url(&quot;#SvgjsMask1040&quot;)" fill="none"><path d="m802.974 422.297-98.383-5.156-5.156 98.382 98.383 5.156z" fill="rgba(28, 83, 142, 0.4)" class="triangle-float2"/><path d="m889.504 349.62 75.89 149.295 81.866-121.372z" fill="rgba(28, 83, 142, 0.4)" class="triangle-float1"/><path d="M1347.842 713.631c52.479 2.966 99.67-29.774 126.636-74.893 27.737-46.408 35.227-104.136 8.431-151.094-27.005-47.324-80.74-75.004-135.067-70.827-48.613 3.738-81.579 45.516-103.319 89.157-19.073 38.287-19.79 81.43-.736 119.727 21.681 43.575 55.462 85.184 104.055 87.93M466.43 595.047l-22.264-126.27-126.271 22.264 22.265 126.271z" fill="rgba(28, 83, 142, 0.4)" class="triangle-float2"/><path d="m117.49 452.985-136.949 2.39 2.39 136.95 136.95-2.39z" fill="rgba(28, 83, 142, 0.4)" class="triangle-float3"/><path d="M-15.67 257.46a131.86 131.86 0 1 0 263.72 0 131.86 131.86 0 1 0-263.72 0z" fill="rgba(28, 83, 142, 0.4)" class="triangle-float2"/><path d="M764.746-56.989 709.509 31.41 853.143-1.75zm292.546 618.237c24.932.783 47.488-14.42 59.73-36.154 12.016-21.333 11.648-47.425-.768-68.527-12.241-20.805-34.823-33.044-58.962-32.993-24.049.051-46.997 12.139-58.535 33.24-11.126 20.347-6.367 44.491 4.971 64.72 11.648 20.781 29.753 38.966 53.564 39.714" fill="rgba(28, 83, 142, 0.4)" class="triangle-float1"/><path d="M860.74 253.07a112.86 112.86 0 1 0 225.72 0 112.86 112.86 0 1 0-225.72 0z" fill="rgba(28, 83, 142, 0.4)" class="triangle-float3"/></g><defs><style>@keyframes float1{0%,to{transform:translate(0,0)}50%{transform:translate(-10px,0)}}@keyframes float2{0%,to{transform:translate(0,0)}50%{transform:translate(-5px,-5px)}}@keyframes float3{0%,to{transform:translate(0,0)}50%{transform:translate(0,-10px)}}.triangle-float1{animation:float1 5s infinite}.triangle-float2{animation:float2 4s infinite}.triangle-float3{animation:float3 6s infinite}</style><mask id="SvgjsMask1040"><path fill="#fff" d="M0 0h1440v560H0z"/></mask></defs></svg>