<svg xmlns="http://www.w3.org/2000/svg" version="1.1" xmlns:xlink="http://www.w3.org/1999/xlink" xmlns:svgjs="http://svgjs.dev/svgjs" width="1200" height="600" preserveAspectRatio="none" viewBox="0 0 1200 600"><g mask="url(&quot;#SvgjsMask1406&quot;)" fill="none"><rect width="1200" height="600" x="0" y="0" fill="url(&quot;#SvgjsLinearGradient1407&quot;)"></rect><path d="M-105.06 496.69L-105.06 496.69" stroke="rgba(150, 239, 21, 0.09)" stroke-width="1.5"></path><path d="M-105.06 496.69L-76.28 681.32" stroke="rgba(150, 239, 21, 0.09)" stroke-width="1.5"></path><path d="M-105.06 496.69L98.22 505.7" stroke="rgba(150, 239, 21, 0.09)" stroke-width="1.5"></path><path d="M-105.06 496.69L105.84 405.2" stroke="rgba(150, 239, 21, 0.09)" stroke-width="1.5"></path><path d="M-76.28 681.32L-76.28 681.32" stroke="rgba(150, 239, 21, 0.09)" stroke-width="1.5"></path><path d="M-76.28 681.32L57.67 703.8" stroke="rgba(150, 239, 21, 0.09)" stroke-width="1.5"></path><path d="M-76.28 681.32L98.22 505.7" stroke="rgba(150, 239, 21, 0.09)" stroke-width="1.5"></path><path d="M-76.28 681.32L227.41 666.08" stroke="rgba(150, 239, 21, 0.09)" stroke-width="1.5"></path><path d="M-76.28 681.32L105.84 405.2" stroke="rgba(150, 239, 21, 0.09)" stroke-width="1.5"></path><path d="M-76.28 681.32L248.5 541.2" stroke="rgba(150, 239, 21, 0.09)" stroke-width="1.5"></path><path d="M105.84 405.2L105.84 405.2" stroke="rgba(150, 239, 21, 0.09)" stroke-width="1.5"></path><path d="M105.84 405.2L98.22 505.7" stroke="rgba(150, 239, 21, 0.09)" stroke-width="1.5"></path><path d="M105.84 405.2L231.63 388.1" stroke="rgba(150, 239, 21, 0.09)" stroke-width="1.5"></path><path d="M105.84 405.2L248.5 541.2" stroke="rgba(150, 239, 21, 0.09)" stroke-width="1.5"></path><path d="M105.84 405.2L227.41 666.08" stroke="rgba(150, 239, 21, 0.09)" stroke-width="1.5"></path><path d="M98.22 505.7L98.22 505.7" stroke="rgba(150, 239, 21, 0.09)" stroke-width="1.5"></path><path d="M98.22 505.7L248.5 541.2" stroke="rgba(150, 239, 21, 0.09)" stroke-width="1.5"></path><path d="M98.22 505.7L231.63 388.1" stroke="rgba(150, 239, 21, 0.09)" stroke-width="1.5"></path><path d="M98.22 505.7L57.67 703.8" stroke="rgba(150, 239, 21, 0.09)" stroke-width="1.5"></path><path d="M57.67 703.8L57.67 703.8" stroke="rgba(150, 239, 21, 0.09)" stroke-width="1.5"></path><path d="M57.67 703.8L227.41 666.08" stroke="rgba(150, 239, 21, 0.09)" stroke-width="1.5"></path><path d="M231.63 388.1L231.63 388.1" stroke="rgba(150, 239, 21, 0.09)" stroke-width="1.5"></path><path d="M231.63 388.1L248.5 541.2" stroke="rgba(150, 239, 21, 0.09)" stroke-width="1.5"></path><path d="M231.63 388.1L407.35 380.93" stroke="rgba(150, 239, 21, 0.09)" stroke-width="1.5"></path><path d="M248.5 541.2L248.5 541.2" stroke="rgba(150, 239, 21, 0.09)" stroke-width="1.5"></path><path d="M248.5 541.2L227.41 666.08" stroke="rgba(150, 239, 21, 0.09)" stroke-width="1.5"></path><path d="M248.5 541.2L383.52 543.3" stroke="rgba(150, 239, 21, 0.09)" stroke-width="1.5"></path><path d="M227.41 666.08L227.41 666.08" stroke="rgba(150, 239, 21, 0.09)" stroke-width="1.5"></path><path d="M227.41 666.08L363.1 709.71" stroke="rgba(150, 239, 21, 0.09)" stroke-width="1.5"></path><path d="M227.41 666.08L383.52 543.3" stroke="rgba(150, 239, 21, 0.09)" stroke-width="1.5"></path><path d="M227.41 666.08L98.22 505.7" stroke="rgba(150, 239, 21, 0.09)" stroke-width="1.5"></path><path d="M227.41 666.08L498.51 693.31" stroke="rgba(150, 239, 21, 0.09)" stroke-width="1.5"></path><path d="M407.35 380.93L407.35 380.93" stroke="rgba(150, 239, 21, 0.09)" stroke-width="1.5"></path><path d="M407.35 380.93L556.4 377.62" stroke="rgba(150, 239, 21, 0.09)" stroke-width="1.5"></path><path d="M407.35 380.93L383.52 543.3" stroke="rgba(150, 239, 21, 0.09)" stroke-width="1.5"></path><path d="M407.35 380.93L552.06 493.18" stroke="rgba(150, 239, 21, 0.09)" stroke-width="1.5"></path><path d="M407.35 380.93L248.5 541.2" stroke="rgba(150, 239, 21, 0.09)" stroke-width="1.5"></path><path d="M383.52 543.3L383.52 543.3" stroke="rgba(150, 239, 21, 0.09)" stroke-width="1.5"></path><path d="M363.1 709.71L363.1 709.71" stroke="rgba(150, 239, 21, 0.09)" stroke-width="1.5"></path><path d="M363.1 709.71L498.51 693.31" stroke="rgba(150, 239, 21, 0.09)" stroke-width="1.5"></path><path d="M363.1 709.71L383.52 543.3" stroke="rgba(150, 239, 21, 0.09)" stroke-width="1.5"></path><path d="M363.1 709.71L248.5 541.2" stroke="rgba(150, 239, 21, 0.09)" stroke-width="1.5"></path><path d="M363.1 709.71L552.06 493.18" stroke="rgba(150, 239, 21, 0.09)" stroke-width="1.5"></path><path d="M363.1 709.71L654.8 709.35" stroke="rgba(150, 239, 21, 0.09)" stroke-width="1.5"></path><path d="M556.4 377.62L556.4 377.62" stroke="rgba(150, 239, 21, 0.09)" stroke-width="1.5"></path><path d="M556.4 377.62L552.06 493.18" stroke="rgba(150, 239, 21, 0.09)" stroke-width="1.5"></path><path d="M552.06 493.18L552.06 493.18" stroke="rgba(150, 239, 21, 0.09)" stroke-width="1.5"></path><path d="M552.06 493.18L659.27 503.96" stroke="rgba(150, 239, 21, 0.09)" stroke-width="1.5"></path><path d="M552.06 493.18L383.52 543.3" stroke="rgba(150, 239, 21, 0.09)" stroke-width="1.5"></path><path d="M552.06 493.18L673.47 349.63" stroke="rgba(150, 239, 21, 0.09)" stroke-width="1.5"></path><path d="M498.51 693.31L498.51 693.31" stroke="rgba(150, 239, 21, 0.09)" stroke-width="1.5"></path><path d="M498.51 693.31L654.8 709.35" stroke="rgba(150, 239, 21, 0.09)" stroke-width="1.5"></path><path d="M707.8 242.2L707.8 242.2" stroke="rgba(150, 239, 21, 0.09)" stroke-width="1.5"></path><path d="M707.8 242.2L788.06 232.24" stroke="rgba(150, 239, 21, 0.09)" stroke-width="1.5"></path><path d="M707.8 242.2L673.47 349.63" stroke="rgba(150, 239, 21, 0.09)" stroke-width="1.5"></path><path d="M673.47 349.63L673.47 349.63" stroke="rgba(150, 239, 21, 0.09)" stroke-width="1.5"></path><path d="M673.47 349.63L556.4 377.62" stroke="rgba(150, 239, 21, 0.09)" stroke-width="1.5"></path><path d="M673.47 349.63L659.27 503.96" stroke="rgba(150, 239, 21, 0.09)" stroke-width="1.5"></path><path d="M673.47 349.63L788.06 232.24" stroke="rgba(150, 239, 21, 0.09)" stroke-width="1.5"></path><path d="M673.47 349.63L839.72 403.41" stroke="rgba(150, 239, 21, 0.09)" stroke-width="1.5"></path><path d="M659.27 503.96L659.27 503.96" stroke="rgba(150, 239, 21, 0.09)" stroke-width="1.5"></path><path d="M659.27 503.96L556.4 377.62" stroke="rgba(150, 239, 21, 0.09)" stroke-width="1.5"></path><path d="M659.27 503.96L824.61 488.55" stroke="rgba(150, 239, 21, 0.09)" stroke-width="1.5"></path><path d="M659.27 503.96L654.8 709.35" stroke="rgba(150, 239, 21, 0.09)" stroke-width="1.5"></path><path d="M654.8 709.35L654.8 709.35" stroke="rgba(150, 239, 21, 0.09)" stroke-width="1.5"></path><path d="M654.8 709.35L836.69 653.3" stroke="rgba(150, 239, 21, 0.09)" stroke-width="1.5"></path><path d="M788.14 -46.2L788.14 -46.2" stroke="rgba(150, 239, 21, 0.09)" stroke-width="1.5"></path><path d="M788.14 -46.2L804.42 46.26" stroke="rgba(150, 239, 21, 0.09)" stroke-width="1.5"></path><path d="M788.14 -46.2L989.76 -76" stroke="rgba(150, 239, 21, 0.09)" stroke-width="1.5"></path><path d="M788.14 -46.2L991.33 62.86" stroke="rgba(150, 239, 21, 0.09)" stroke-width="1.5"></path><path d="M804.42 46.26L804.42 46.26" stroke="rgba(150, 239, 21, 0.09)" stroke-width="1.5"></path><path d="M804.42 46.26L788.06 232.24" stroke="rgba(150, 239, 21, 0.09)" stroke-width="1.5"></path><path d="M804.42 46.26L991.33 62.86" stroke="rgba(150, 239, 21, 0.09)" stroke-width="1.5"></path><path d="M804.42 46.26L707.8 242.2" stroke="rgba(150, 239, 21, 0.09)" stroke-width="1.5"></path><path d="M788.06 232.24L788.06 232.24" stroke="rgba(150, 239, 21, 0.09)" stroke-width="1.5"></path><path d="M788.06 232.24L839.72 403.41" stroke="rgba(150, 239, 21, 0.09)" stroke-width="1.5"></path><path d="M788.06 232.24L995.83 253.25" stroke="rgba(150, 239, 21, 0.09)" stroke-width="1.5"></path><path d="M839.72 403.41L839.72 403.41" stroke="rgba(150, 239, 21, 0.09)" stroke-width="1.5"></path><path d="M839.72 403.41L824.61 488.55" stroke="rgba(150, 239, 21, 0.09)" stroke-width="1.5"></path><path d="M839.72 403.41L952.58 540.14" stroke="rgba(150, 239, 21, 0.09)" stroke-width="1.5"></path><path d="M824.61 488.55L824.61 488.55" stroke="rgba(150, 239, 21, 0.09)" stroke-width="1.5"></path><path d="M824.61 488.55L952.58 540.14" stroke="rgba(150, 239, 21, 0.09)" stroke-width="1.5"></path><path d="M824.61 488.55L836.69 653.3" stroke="rgba(150, 239, 21, 0.09)" stroke-width="1.5"></path><path d="M824.61 488.55L673.47 349.63" stroke="rgba(150, 239, 21, 0.09)" stroke-width="1.5"></path><path d="M836.69 653.3L836.69 653.3" stroke="rgba(150, 239, 21, 0.09)" stroke-width="1.5"></path><path d="M836.69 653.3L972.94 640.59" stroke="rgba(150, 239, 21, 0.09)" stroke-width="1.5"></path><path d="M836.69 653.3L952.58 540.14" stroke="rgba(150, 239, 21, 0.09)" stroke-width="1.5"></path><path d="M836.69 653.3L659.27 503.96" stroke="rgba(150, 239, 21, 0.09)" stroke-width="1.5"></path><path d="M836.69 653.3L839.72 403.41" stroke="rgba(150, 239, 21, 0.09)" stroke-width="1.5"></path><path d="M989.76 -76L989.76 -76" stroke="rgba(150, 239, 21, 0.09)" stroke-width="1.5"></path><path d="M989.76 -76L991.33 62.86" stroke="rgba(150, 239, 21, 0.09)" stroke-width="1.5"></path><path d="M989.76 -76L1141.74 -108.52" stroke="rgba(150, 239, 21, 0.09)" stroke-width="1.5"></path><path d="M991.33 62.86L991.33 62.86" stroke="rgba(150, 239, 21, 0.09)" stroke-width="1.5"></path><path d="M991.33 62.86L995.83 253.25" stroke="rgba(150, 239, 21, 0.09)" stroke-width="1.5"></path><path d="M991.33 62.86L1141.74 -108.52" stroke="rgba(150, 239, 21, 0.09)" stroke-width="1.5"></path><path d="M995.83 253.25L995.83 253.25" stroke="rgba(150, 239, 21, 0.09)" stroke-width="1.5"></path><path d="M995.83 253.25L1010.83 348.66" stroke="rgba(150, 239, 21, 0.09)" stroke-width="1.5"></path><path d="M995.83 253.25L1100.22 354.15" stroke="rgba(150, 239, 21, 0.09)" stroke-width="1.5"></path><path d="M1010.83 348.66L1010.83 348.66" stroke="rgba(150, 239, 21, 0.09)" stroke-width="1.5"></path><path d="M1010.83 348.66L1100.22 354.15" stroke="rgba(150, 239, 21, 0.09)" stroke-width="1.5"></path><path d="M1010.83 348.66L839.72 403.41" stroke="rgba(150, 239, 21, 0.09)" stroke-width="1.5"></path><path d="M1010.83 348.66L1106.77 510.15" stroke="rgba(150, 239, 21, 0.09)" stroke-width="1.5"></path><path d="M1010.83 348.66L952.58 540.14" stroke="rgba(150, 239, 21, 0.09)" stroke-width="1.5"></path><path d="M1010.83 348.66L824.61 488.55" stroke="rgba(150, 239, 21, 0.09)" stroke-width="1.5"></path><path d="M952.58 540.14L952.58 540.14" stroke="rgba(150, 239, 21, 0.09)" stroke-width="1.5"></path><path d="M952.58 540.14L972.94 640.59" stroke="rgba(150, 239, 21, 0.09)" stroke-width="1.5"></path><path d="M952.58 540.14L1106.77 510.15" stroke="rgba(150, 239, 21, 0.09)" stroke-width="1.5"></path><path d="M972.94 640.59L972.94 640.59" stroke="rgba(150, 239, 21, 0.09)" stroke-width="1.5"></path><path d="M972.94 640.59L1106.77 510.15" stroke="rgba(150, 239, 21, 0.09)" stroke-width="1.5"></path><path d="M972.94 640.59L824.61 488.55" stroke="rgba(150, 239, 21, 0.09)" stroke-width="1.5"></path><path d="M972.94 640.59L839.72 403.41" stroke="rgba(150, 239, 21, 0.09)" stroke-width="1.5"></path><path d="M972.94 640.59L1010.83 348.66" stroke="rgba(150, 239, 21, 0.09)" stroke-width="1.5"></path><path d="M1141.74 -108.52L1141.74 -108.52" stroke="rgba(150, 239, 21, 0.09)" stroke-width="1.5"></path><path d="M1141.74 -108.52L1303.05 -80.19" stroke="rgba(150, 239, 21, 0.09)" stroke-width="1.5"></path><path d="M1141.74 -108.52L1260.79 41.69" stroke="rgba(150, 239, 21, 0.09)" stroke-width="1.5"></path><path d="M1141.74 -108.52L1304.83 206.87" stroke="rgba(150, 239, 21, 0.09)" stroke-width="1.5"></path><path d="M1141.74 -108.52L788.14 -46.2" stroke="rgba(150, 239, 21, 0.09)" stroke-width="1.5"></path><path d="M1100.22 354.15L1100.22 354.15" stroke="rgba(150, 239, 21, 0.09)" stroke-width="1.5"></path><path d="M1106.77 510.15L1106.77 510.15" stroke="rgba(150, 239, 21, 0.09)" stroke-width="1.5"></path><path d="M1106.77 510.15L1253.95 501.88" stroke="rgba(150, 239, 21, 0.09)" stroke-width="1.5"></path><path d="M1106.77 510.15L1100.22 354.15" stroke="rgba(150, 239, 21, 0.09)" stroke-width="1.5"></path><path d="M1106.77 510.15L1298.49 354.85" stroke="rgba(150, 239, 21, 0.09)" stroke-width="1.5"></path><path d="M1303.05 -80.19L1303.05 -80.19" stroke="rgba(150, 239, 21, 0.09)" stroke-width="1.5"></path><path d="M1303.05 -80.19L1260.79 41.69" stroke="rgba(150, 239, 21, 0.09)" stroke-width="1.5"></path><path d="M1303.05 -80.19L1304.83 206.87" stroke="rgba(150, 239, 21, 0.09)" stroke-width="1.5"></path><path d="M1303.05 -80.19L989.76 -76" stroke="rgba(150, 239, 21, 0.09)" stroke-width="1.5"></path><path d="M1303.05 -80.19L991.33 62.86" stroke="rgba(150, 239, 21, 0.09)" stroke-width="1.5"></path><path d="M1260.79 41.69L1260.79 41.69" stroke="rgba(150, 239, 21, 0.09)" stroke-width="1.5"></path><path d="M1260.79 41.69L1304.83 206.87" stroke="rgba(150, 239, 21, 0.09)" stroke-width="1.5"></path><path d="M1260.79 41.69L991.33 62.86" stroke="rgba(150, 239, 21, 0.09)" stroke-width="1.5"></path><path d="M1260.79 41.69L989.76 -76" stroke="rgba(150, 239, 21, 0.09)" stroke-width="1.5"></path><path d="M1304.83 206.87L1304.83 206.87" stroke="rgba(150, 239, 21, 0.09)" stroke-width="1.5"></path><path d="M1304.83 206.87L1298.49 354.85" stroke="rgba(150, 239, 21, 0.09)" stroke-width="1.5"></path><path d="M1304.83 206.87L1100.22 354.15" stroke="rgba(150, 239, 21, 0.09)" stroke-width="1.5"></path><path d="M1304.83 206.87L1253.95 501.88" stroke="rgba(150, 239, 21, 0.09)" stroke-width="1.5"></path><path d="M1298.49 354.85L1298.49 354.85" stroke="rgba(150, 239, 21, 0.09)" stroke-width="1.5"></path><path d="M1298.49 354.85L1253.95 501.88" stroke="rgba(150, 239, 21, 0.09)" stroke-width="1.5"></path><path d="M1298.49 354.85L1100.22 354.15" stroke="rgba(150, 239, 21, 0.09)" stroke-width="1.5"></path><path d="M1253.95 501.88L1253.95 501.88" stroke="rgba(150, 239, 21, 0.09)" stroke-width="1.5"></path><path d="M1253.95 501.88L1283.39 710.32" stroke="rgba(150, 239, 21, 0.09)" stroke-width="1.5"></path><path d="M1283.39 710.32L1283.39 710.32" stroke="rgba(150, 239, 21, 0.09)" stroke-width="1.5"></path><path d="M1283.39 710.32L1106.77 510.15" stroke="rgba(150, 239, 21, 0.09)" stroke-width="1.5"></path><path d="M1283.39 710.32L972.94 640.59" stroke="rgba(150, 239, 21, 0.09)" stroke-width="1.5"></path><path d="M1283.39 710.32L1298.49 354.85" stroke="rgba(150, 239, 21, 0.09)" stroke-width="1.5"></path><path d="M1283.39 710.32L952.58 540.14" stroke="rgba(150, 239, 21, 0.09)" stroke-width="1.5"></path><path d="M1283.39 710.32L1100.22 354.15" stroke="rgba(150, 239, 21, 0.09)" stroke-width="1.5"></path><circle r="5" cx="-105.06" cy="496.69" fill="rgba(150, 239, 21, 0.09)"></circle><circle r="5" cx="-76.28" cy="681.32" fill="rgba(150, 239, 21, 0.09)"></circle><circle r="5" cx="105.84" cy="405.2" fill="rgba(150, 239, 21, 0.09)"></circle><circle r="5" cx="98.22" cy="505.7" fill="rgba(150, 239, 21, 0.09)"></circle><circle r="5" cx="57.67" cy="703.8" fill="rgba(150, 239, 21, 0.09)"></circle><circle r="5" cx="231.63" cy="388.1" fill="rgba(150, 239, 21, 0.09)"></circle><circle r="5" cx="248.5" cy="541.2" fill="rgba(150, 239, 21, 0.09)"></circle><circle r="5" cx="227.41" cy="666.08" fill="rgba(150, 239, 21, 0.09)"></circle><circle r="5" cx="407.35" cy="380.93" fill="rgba(150, 239, 21, 0.09)"></circle><circle r="5" cx="383.52" cy="543.3" fill="rgba(150, 239, 21, 0.09)"></circle><circle r="5" cx="363.1" cy="709.71" fill="rgba(150, 239, 21, 0.09)"></circle><circle r="5" cx="556.4" cy="377.62" fill="rgba(150, 239, 21, 0.09)"></circle><circle r="5" cx="552.06" cy="493.18" fill="rgba(150, 239, 21, 0.09)"></circle><circle r="5" cx="498.51" cy="693.31" fill="rgba(150, 239, 21, 0.09)"></circle><circle r="5" cx="707.8" cy="242.2" fill="rgba(150, 239, 21, 0.09)"></circle><circle r="5" cx="673.47" cy="349.63" fill="rgba(150, 239, 21, 0.09)"></circle><circle r="5" cx="659.27" cy="503.96" fill="rgba(150, 239, 21, 0.09)"></circle><circle r="5" cx="654.8" cy="709.35" fill="rgba(150, 239, 21, 0.09)"></circle><circle r="5" cx="788.14" cy="-46.2" fill="rgba(150, 239, 21, 0.09)"></circle><circle r="5" cx="804.42" cy="46.26" fill="rgba(150, 239, 21, 0.09)"></circle><circle r="5" cx="788.06" cy="232.24" fill="rgba(150, 239, 21, 0.09)"></circle><circle r="5" cx="839.72" cy="403.41" fill="rgba(150, 239, 21, 0.09)"></circle><circle r="5" cx="824.61" cy="488.55" fill="rgba(150, 239, 21, 0.09)"></circle><circle r="5" cx="836.69" cy="653.3" fill="rgba(150, 239, 21, 0.09)"></circle><circle r="5" cx="989.76" cy="-76" fill="rgba(150, 239, 21, 0.09)"></circle><circle r="5" cx="991.33" cy="62.86" fill="rgba(150, 239, 21, 0.09)"></circle><circle r="5" cx="995.83" cy="253.25" fill="rgba(150, 239, 21, 0.09)"></circle><circle r="5" cx="1010.83" cy="348.66" fill="rgba(150, 239, 21, 0.09)"></circle><circle r="5" cx="952.58" cy="540.14" fill="rgba(150, 239, 21, 0.09)"></circle><circle r="5" cx="972.94" cy="640.59" fill="rgba(150, 239, 21, 0.09)"></circle><circle r="5" cx="1141.74" cy="-108.52" fill="rgba(150, 239, 21, 0.09)"></circle><circle r="5" cx="1100.22" cy="354.15" fill="rgba(150, 239, 21, 0.09)"></circle><circle r="5" cx="1106.77" cy="510.15" fill="rgba(150, 239, 21, 0.09)"></circle><circle r="5" cx="1303.05" cy="-80.19" fill="rgba(150, 239, 21, 0.09)"></circle><circle r="5" cx="1260.79" cy="41.69" fill="rgba(150, 239, 21, 0.09)"></circle><circle r="5" cx="1304.83" cy="206.87" fill="rgba(150, 239, 21, 0.09)"></circle><circle r="5" cx="1298.49" cy="354.85" fill="rgba(150, 239, 21, 0.09)"></circle><circle r="5" cx="1253.95" cy="501.88" fill="rgba(150, 239, 21, 0.09)"></circle><circle r="5" cx="1283.39" cy="710.32" fill="rgba(150, 239, 21, 0.09)"></circle><path d="M392.67 658.41L392.67 658.41" stroke="hsla(143.7, 96.6%, 30.1%, 0.73)" stroke-width="1.5"></path><path d="M392.67 658.41L500.37 679.01" stroke="hsla(143.7, 96.6%, 30.1%, 0.73)" stroke-width="1.5"></path><path d="M392.67 658.41L364.85 548.03" stroke="hsla(143.7, 96.6%, 30.1%, 0.73)" stroke-width="1.5"></path><path d="M392.67 658.41L249.81 695.3" stroke="hsla(143.7, 96.6%, 30.1%, 0.73)" stroke-width="1.5"></path><path d="M392.67 658.41L521.02 490.98" stroke="hsla(143.7, 96.6%, 30.1%, 0.73)" stroke-width="1.5"></path><path d="M521.02 490.98L521.02 490.98" stroke="hsla(143.7, 96.6%, 30.1%, 0.73)" stroke-width="1.5"></path><path d="M521.02 490.98L681.53 517.28" stroke="hsla(143.7, 96.6%, 30.1%, 0.73)" stroke-width="1.5"></path><path d="M670.61 398.43L670.61 398.43" stroke="hsla(143.7, 96.6%, 30.1%, 0.73)" stroke-width="1.5"></path><path d="M670.61 398.43L681.53 517.28" stroke="hsla(143.7, 96.6%, 30.1%, 0.73)" stroke-width="1.5"></path><path d="M670.61 398.43L806.4 395.86" stroke="hsla(143.7, 96.6%, 30.1%, 0.73)" stroke-width="1.5"></path><path d="M670.61 398.43L521.02 490.98" stroke="hsla(143.7, 96.6%, 30.1%, 0.73)" stroke-width="1.5"></path><path d="M670.61 398.43L853.71 539.63" stroke="hsla(143.7, 96.6%, 30.1%, 0.73)" stroke-width="1.5"></path><path d="M806.4 395.86L806.4 395.86" stroke="hsla(143.7, 96.6%, 30.1%, 0.73)" stroke-width="1.5"></path><path d="M806.4 395.86L853.71 539.63" stroke="hsla(143.7, 96.6%, 30.1%, 0.73)" stroke-width="1.5"></path><path d="M806.4 395.86L681.53 517.28" stroke="hsla(143.7, 96.6%, 30.1%, 0.73)" stroke-width="1.5"></path><path d="M806.4 395.86L974.17 344.48" stroke="hsla(143.7, 96.6%, 30.1%, 0.73)" stroke-width="1.5"></path><path d="M964.66 680.52L964.66 680.52" stroke="hsla(143.7, 96.6%, 30.1%, 0.73)" stroke-width="1.5"></path><path d="M964.66 680.52L819.81 658.26" stroke="hsla(143.7, 96.6%, 30.1%, 0.73)" stroke-width="1.5"></path><path d="M964.66 680.52L1134.88 648.9" stroke="hsla(143.7, 96.6%, 30.1%, 0.73)" stroke-width="1.5"></path><path d="M964.66 680.52L853.71 539.63" stroke="hsla(143.7, 96.6%, 30.1%, 0.73)" stroke-width="1.5"></path><path d="M1149.85 90.59L1149.85 90.59" stroke="hsla(143.7, 96.6%, 30.1%, 0.73)" stroke-width="1.5"></path><path d="M1149.85 90.59L1008.51 39.93" stroke="hsla(143.7, 96.6%, 30.1%, 0.73)" stroke-width="1.5"></path><path d="M1149.85 90.59L1309.02 78.98" stroke="hsla(143.7, 96.6%, 30.1%, 0.73)" stroke-width="1.5"></path><path d="M-80.29 524.2L-80.29 524.2" stroke="hsla(143.7, 96.6%, 30.1%, 0.73)" stroke-width="1.5"></path><path d="M-80.29 524.2L77.21 550.86" stroke="hsla(143.7, 96.6%, 30.1%, 0.73)" stroke-width="1.5"></path><path d="M-80.29 524.2L-38.37 692.88" stroke="hsla(143.7, 96.6%, 30.1%, 0.73)" stroke-width="1.5"></path><path d="M-80.29 524.2L239.2 504.31" stroke="hsla(143.7, 96.6%, 30.1%, 0.73)" stroke-width="1.5"></path><path d="M-38.37 692.88L-38.37 692.88" stroke="hsla(143.7, 96.6%, 30.1%, 0.73)" stroke-width="1.5"></path><path d="M-38.37 692.88L77.21 550.86" stroke="hsla(143.7, 96.6%, 30.1%, 0.73)" stroke-width="1.5"></path><path d="M-38.37 692.88L249.81 695.3" stroke="hsla(143.7, 96.6%, 30.1%, 0.73)" stroke-width="1.5"></path><path d="M-38.37 692.88L239.2 504.31" stroke="hsla(143.7, 96.6%, 30.1%, 0.73)" stroke-width="1.5"></path><path d="M-38.37 692.88L364.85 548.03" stroke="hsla(143.7, 96.6%, 30.1%, 0.73)" stroke-width="1.5"></path><path d="M-38.37 692.88L392.67 658.41" stroke="hsla(143.7, 96.6%, 30.1%, 0.73)" stroke-width="1.5"></path><path d="M77.21 550.86L77.21 550.86" stroke="hsla(143.7, 96.6%, 30.1%, 0.73)" stroke-width="1.5"></path><path d="M77.21 550.86L239.2 504.31" stroke="hsla(143.7, 96.6%, 30.1%, 0.73)" stroke-width="1.5"></path><path d="M239.2 504.31L239.2 504.31" stroke="hsla(143.7, 96.6%, 30.1%, 0.73)" stroke-width="1.5"></path><path d="M239.2 504.31L364.85 548.03" stroke="hsla(143.7, 96.6%, 30.1%, 0.73)" stroke-width="1.5"></path><path d="M249.81 695.3L249.81 695.3" stroke="hsla(143.7, 96.6%, 30.1%, 0.73)" stroke-width="1.5"></path><path d="M249.81 695.3L364.85 548.03" stroke="hsla(143.7, 96.6%, 30.1%, 0.73)" stroke-width="1.5"></path><path d="M249.81 695.3L239.2 504.31" stroke="hsla(143.7, 96.6%, 30.1%, 0.73)" stroke-width="1.5"></path><path d="M249.81 695.3L77.21 550.86" stroke="hsla(143.7, 96.6%, 30.1%, 0.73)" stroke-width="1.5"></path><path d="M249.81 695.3L500.37 679.01" stroke="hsla(143.7, 96.6%, 30.1%, 0.73)" stroke-width="1.5"></path><path d="M364.85 548.03L364.85 548.03" stroke="hsla(143.7, 96.6%, 30.1%, 0.73)" stroke-width="1.5"></path><path d="M500.37 679.01L500.37 679.01" stroke="hsla(143.7, 96.6%, 30.1%, 0.73)" stroke-width="1.5"></path><path d="M500.37 679.01L675.65 670.16" stroke="hsla(143.7, 96.6%, 30.1%, 0.73)" stroke-width="1.5"></path><path d="M500.37 679.01L364.85 548.03" stroke="hsla(143.7, 96.6%, 30.1%, 0.73)" stroke-width="1.5"></path><path d="M500.37 679.01L521.02 490.98" stroke="hsla(143.7, 96.6%, 30.1%, 0.73)" stroke-width="1.5"></path><path d="M681.53 517.28L681.53 517.28" stroke="hsla(143.7, 96.6%, 30.1%, 0.73)" stroke-width="1.5"></path><path d="M681.53 517.28L675.65 670.16" stroke="hsla(143.7, 96.6%, 30.1%, 0.73)" stroke-width="1.5"></path><path d="M681.53 517.28L853.71 539.63" stroke="hsla(143.7, 96.6%, 30.1%, 0.73)" stroke-width="1.5"></path><path d="M675.65 670.16L675.65 670.16" stroke="hsla(143.7, 96.6%, 30.1%, 0.73)" stroke-width="1.5"></path><path d="M675.65 670.16L819.81 658.26" stroke="hsla(143.7, 96.6%, 30.1%, 0.73)" stroke-width="1.5"></path><path d="M675.65 670.16L853.71 539.63" stroke="hsla(143.7, 96.6%, 30.1%, 0.73)" stroke-width="1.5"></path><path d="M853.71 539.63L853.71 539.63" stroke="hsla(143.7, 96.6%, 30.1%, 0.73)" stroke-width="1.5"></path><path d="M853.71 539.63L819.81 658.26" stroke="hsla(143.7, 96.6%, 30.1%, 0.73)" stroke-width="1.5"></path><path d="M819.81 658.26L819.81 658.26" stroke="hsla(143.7, 96.6%, 30.1%, 0.73)" stroke-width="1.5"></path><path d="M1008.51 39.93L1008.51 39.93" stroke="hsla(143.7, 96.6%, 30.1%, 0.73)" stroke-width="1.5"></path><path d="M1008.51 39.93L1146.44 -103.34" stroke="hsla(143.7, 96.6%, 30.1%, 0.73)" stroke-width="1.5"></path><path d="M1008.51 39.93L947.39 255.64" stroke="hsla(143.7, 96.6%, 30.1%, 0.73)" stroke-width="1.5"></path><path d="M1008.51 39.93L1153.66 258.88" stroke="hsla(143.7, 96.6%, 30.1%, 0.73)" stroke-width="1.5"></path><path d="M947.39 255.64L947.39 255.64" stroke="hsla(143.7, 96.6%, 30.1%, 0.73)" stroke-width="1.5"></path><path d="M947.39 255.64L974.17 344.48" stroke="hsla(143.7, 96.6%, 30.1%, 0.73)" stroke-width="1.5"></path><path d="M947.39 255.64L806.4 395.86" stroke="hsla(143.7, 96.6%, 30.1%, 0.73)" stroke-width="1.5"></path><path d="M947.39 255.64L1153.66 258.88" stroke="hsla(143.7, 96.6%, 30.1%, 0.73)" stroke-width="1.5"></path><path d="M974.17 344.48L974.17 344.48" stroke="hsla(143.7, 96.6%, 30.1%, 0.73)" stroke-width="1.5"></path><path d="M974.17 344.48L1153.66 258.88" stroke="hsla(143.7, 96.6%, 30.1%, 0.73)" stroke-width="1.5"></path><path d="M974.17 344.48L1114.62 503.68" stroke="hsla(143.7, 96.6%, 30.1%, 0.73)" stroke-width="1.5"></path><path d="M974.17 344.48L853.71 539.63" stroke="hsla(143.7, 96.6%, 30.1%, 0.73)" stroke-width="1.5"></path><path d="M1146.44 -103.34L1146.44 -103.34" stroke="hsla(143.7, 96.6%, 30.1%, 0.73)" stroke-width="1.5"></path><path d="M1146.44 -103.34L1277.89 -41.6" stroke="hsla(143.7, 96.6%, 30.1%, 0.73)" stroke-width="1.5"></path><path d="M1146.44 -103.34L1149.85 90.59" stroke="hsla(143.7, 96.6%, 30.1%, 0.73)" stroke-width="1.5"></path><path d="M1146.44 -103.34L1309.02 78.98" stroke="hsla(143.7, 96.6%, 30.1%, 0.73)" stroke-width="1.5"></path><path d="M1146.44 -103.34L1153.66 258.88" stroke="hsla(143.7, 96.6%, 30.1%, 0.73)" stroke-width="1.5"></path><path d="M1146.44 -103.34L1283.36 247.84" stroke="hsla(143.7, 96.6%, 30.1%, 0.73)" stroke-width="1.5"></path><path d="M1153.66 258.88L1153.66 258.88" stroke="hsla(143.7, 96.6%, 30.1%, 0.73)" stroke-width="1.5"></path><path d="M1153.66 258.88L1283.36 247.84" stroke="hsla(143.7, 96.6%, 30.1%, 0.73)" stroke-width="1.5"></path><path d="M1114.62 503.68L1114.62 503.68" stroke="hsla(143.7, 96.6%, 30.1%, 0.73)" stroke-width="1.5"></path><path d="M1114.62 503.68L1134.88 648.9" stroke="hsla(143.7, 96.6%, 30.1%, 0.73)" stroke-width="1.5"></path><path d="M1114.62 503.68L1301.84 507.45" stroke="hsla(143.7, 96.6%, 30.1%, 0.73)" stroke-width="1.5"></path><path d="M1114.62 503.68L1241.48 647.21" stroke="hsla(143.7, 96.6%, 30.1%, 0.73)" stroke-width="1.5"></path><path d="M1114.62 503.68L1306.83 392.42" stroke="hsla(143.7, 96.6%, 30.1%, 0.73)" stroke-width="1.5"></path><path d="M1134.88 648.9L1134.88 648.9" stroke="hsla(143.7, 96.6%, 30.1%, 0.73)" stroke-width="1.5"></path><path d="M1134.88 648.9L1241.48 647.21" stroke="hsla(143.7, 96.6%, 30.1%, 0.73)" stroke-width="1.5"></path><path d="M1134.88 648.9L1301.84 507.45" stroke="hsla(143.7, 96.6%, 30.1%, 0.73)" stroke-width="1.5"></path><path d="M1134.88 648.9L853.71 539.63" stroke="hsla(143.7, 96.6%, 30.1%, 0.73)" stroke-width="1.5"></path><path d="M1134.88 648.9L1306.83 392.42" stroke="hsla(143.7, 96.6%, 30.1%, 0.73)" stroke-width="1.5"></path><path d="M1277.89 -41.6L1277.89 -41.6" stroke="hsla(143.7, 96.6%, 30.1%, 0.73)" stroke-width="1.5"></path><path d="M1277.89 -41.6L1309.02 78.98" stroke="hsla(143.7, 96.6%, 30.1%, 0.73)" stroke-width="1.5"></path><path d="M1277.89 -41.6L1149.85 90.59" stroke="hsla(143.7, 96.6%, 30.1%, 0.73)" stroke-width="1.5"></path><path d="M1277.89 -41.6L1008.51 39.93" stroke="hsla(143.7, 96.6%, 30.1%, 0.73)" stroke-width="1.5"></path><path d="M1277.89 -41.6L1283.36 247.84" stroke="hsla(143.7, 96.6%, 30.1%, 0.73)" stroke-width="1.5"></path><path d="M1277.89 -41.6L1153.66 258.88" stroke="hsla(143.7, 96.6%, 30.1%, 0.73)" stroke-width="1.5"></path><path d="M1309.02 78.98L1309.02 78.98" stroke="hsla(143.7, 96.6%, 30.1%, 0.73)" stroke-width="1.5"></path><path d="M1309.02 78.98L1283.36 247.84" stroke="hsla(143.7, 96.6%, 30.1%, 0.73)" stroke-width="1.5"></path><path d="M1283.36 247.84L1283.36 247.84" stroke="hsla(143.7, 96.6%, 30.1%, 0.73)" stroke-width="1.5"></path><path d="M1283.36 247.84L1306.83 392.42" stroke="hsla(143.7, 96.6%, 30.1%, 0.73)" stroke-width="1.5"></path><path d="M1306.83 392.42L1306.83 392.42" stroke="hsla(143.7, 96.6%, 30.1%, 0.73)" stroke-width="1.5"></path><path d="M1306.83 392.42L1301.84 507.45" stroke="hsla(143.7, 96.6%, 30.1%, 0.73)" stroke-width="1.5"></path><path d="M1306.83 392.42L1153.66 258.88" stroke="hsla(143.7, 96.6%, 30.1%, 0.73)" stroke-width="1.5"></path><path d="M1301.84 507.45L1301.84 507.45" stroke="hsla(143.7, 96.6%, 30.1%, 0.73)" stroke-width="1.5"></path><path d="M1301.84 507.45L1241.48 647.21" stroke="hsla(143.7, 96.6%, 30.1%, 0.73)" stroke-width="1.5"></path><path d="M1241.48 647.21L1241.48 647.21" stroke="hsla(143.7, 96.6%, 30.1%, 0.73)" stroke-width="1.5"></path><circle r="25" cx="392.67" cy="658.41" fill="url(&quot;#SvgjsRadialGradient1408&quot;)"></circle><circle r="25" cx="521.02" cy="490.98" fill="url(&quot;#SvgjsRadialGradient1408&quot;)"></circle><circle r="25" cx="670.61" cy="398.43" fill="url(&quot;#SvgjsRadialGradient1408&quot;)"></circle><circle r="25" cx="806.4" cy="395.86" fill="url(&quot;#SvgjsRadialGradient1408&quot;)"></circle><circle r="25" cx="964.66" cy="680.52" fill="url(&quot;#SvgjsRadialGradient1408&quot;)"></circle><circle r="25" cx="1149.85" cy="90.59" fill="url(&quot;#SvgjsRadialGradient1408&quot;)"></circle><circle r="5" cx="-80.29" cy="524.2" fill="rgba(163, 204, 179, 0.865)"></circle><circle r="5" cx="-38.37" cy="692.88" fill="rgba(163, 204, 179, 0.865)"></circle><circle r="5" cx="77.21" cy="550.86" fill="rgba(163, 204, 179, 0.865)"></circle><circle r="5" cx="239.2" cy="504.31" fill="rgba(163, 204, 179, 0.865)"></circle><circle r="5" cx="249.81" cy="695.3" fill="rgba(163, 204, 179, 0.865)"></circle><circle r="5" cx="364.85" cy="548.03" fill="rgba(163, 204, 179, 0.865)"></circle><circle r="5" cx="500.37" cy="679.01" fill="rgba(163, 204, 179, 0.865)"></circle><circle r="5" cx="681.53" cy="517.28" fill="rgba(163, 204, 179, 0.865)"></circle><circle r="5" cx="675.65" cy="670.16" fill="rgba(163, 204, 179, 0.865)"></circle><circle r="5" cx="853.71" cy="539.63" fill="rgba(163, 204, 179, 0.865)"></circle><circle r="5" cx="819.81" cy="658.26" fill="rgba(163, 204, 179, 0.865)"></circle><circle r="5" cx="1008.51" cy="39.93" fill="rgba(163, 204, 179, 0.865)"></circle><circle r="5" cx="947.39" cy="255.64" fill="rgba(163, 204, 179, 0.865)"></circle><circle r="5" cx="974.17" cy="344.48" fill="rgba(163, 204, 179, 0.865)"></circle><circle r="5" cx="1146.44" cy="-103.34" fill="rgba(163, 204, 179, 0.865)"></circle><circle r="5" cx="1153.66" cy="258.88" fill="rgba(163, 204, 179, 0.865)"></circle><circle r="5" cx="1114.62" cy="503.68" fill="rgba(163, 204, 179, 0.865)"></circle><circle r="5" cx="1134.88" cy="648.9" fill="rgba(163, 204, 179, 0.865)"></circle><circle r="5" cx="1277.89" cy="-41.6" fill="rgba(163, 204, 179, 0.865)"></circle><circle r="5" cx="1309.02" cy="78.98" fill="rgba(163, 204, 179, 0.865)"></circle><circle r="5" cx="1283.36" cy="247.84" fill="rgba(163, 204, 179, 0.865)"></circle><circle r="5" cx="1306.83" cy="392.42" fill="rgba(163, 204, 179, 0.865)"></circle><circle r="5" cx="1301.84" cy="507.45" fill="rgba(163, 204, 179, 0.865)"></circle><circle r="5" cx="1241.48" cy="647.21" fill="rgba(163, 204, 179, 0.865)"></circle></g><defs><mask id="SvgjsMask1406"><rect width="1200" height="600" fill="#ffffff"></rect></mask><linearGradient x1="12.5%" y1="-25%" x2="87.5%" y2="125%" gradientUnits="userSpaceOnUse" id="SvgjsLinearGradient1407"><stop stop-color="#0e2a47" offset="0"></stop><stop stop-color="rgba(0, 0, 0, 1)" offset="1"></stop></linearGradient><radialGradient id="SvgjsRadialGradient1408"><stop stop-color="#ffffff" offset="0.1"></stop><stop stop-color="rgba(2, 116, 47, 0.73)" offset="0.2"></stop><stop stop-color="rgba(2, 116, 47, 0)" offset="1"></stop></radialGradient></defs></svg>