<svg xmlns="http://www.w3.org/2000/svg" version="1.1" xmlns:xlink="http://www.w3.org/1999/xlink" xmlns:svgjs="http://svgjs.dev/svgjs" width="500" height="900" preserveAspectRatio="none" viewBox="0 0 500 900"><g mask="url(&quot;#SvgjsMask1445&quot;)" fill="none"><rect width="500" height="900" x="0" y="0" fill="url(&quot;#SvgjsLinearGradient1446&quot;)"></rect><path d="M-36.56 631.92L-36.56 631.92" stroke="rgba(150, 239, 21, 0.09)" stroke-width="1.5"></path><path d="M-36.56 631.92L30.83 618.58" stroke="rgba(150, 239, 21, 0.09)" stroke-width="1.5"></path><path d="M-36.56 631.92L52.92 712.84" stroke="rgba(150, 239, 21, 0.09)" stroke-width="1.5"></path><path d="M-40.46 758.02L-40.46 758.02" stroke="rgba(150, 239, 21, 0.09)" stroke-width="1.5"></path><path d="M-40.46 758.02L-34.93 852.4" stroke="rgba(150, 239, 21, 0.09)" stroke-width="1.5"></path><path d="M-40.46 758.02L33.37 830.22" stroke="rgba(150, 239, 21, 0.09)" stroke-width="1.5"></path><path d="M-40.46 758.02L52.92 712.84" stroke="rgba(150, 239, 21, 0.09)" stroke-width="1.5"></path><path d="M-40.46 758.02L-36.56 631.92" stroke="rgba(150, 239, 21, 0.09)" stroke-width="1.5"></path><path d="M-34.93 852.4L-34.93 852.4" stroke="rgba(150, 239, 21, 0.09)" stroke-width="1.5"></path><path d="M-34.93 852.4L33.37 830.22" stroke="rgba(150, 239, 21, 0.09)" stroke-width="1.5"></path><path d="M-34.93 852.4L-69.45 952.36" stroke="rgba(150, 239, 21, 0.09)" stroke-width="1.5"></path><path d="M-34.93 852.4L48.55 948.77" stroke="rgba(150, 239, 21, 0.09)" stroke-width="1.5"></path><path d="M-34.93 852.4L52.92 712.84" stroke="rgba(150, 239, 21, 0.09)" stroke-width="1.5"></path><path d="M-69.45 952.36L-69.45 952.36" stroke="rgba(150, 239, 21, 0.09)" stroke-width="1.5"></path><path d="M-69.45 952.36L48.55 948.77" stroke="rgba(150, 239, 21, 0.09)" stroke-width="1.5"></path><path d="M-69.45 952.36L33.37 830.22" stroke="rgba(150, 239, 21, 0.09)" stroke-width="1.5"></path><path d="M-69.45 952.36L-40.46 758.02" stroke="rgba(150, 239, 21, 0.09)" stroke-width="1.5"></path><path d="M30.83 618.58L30.83 618.58" stroke="rgba(150, 239, 21, 0.09)" stroke-width="1.5"></path><path d="M30.83 618.58L52.92 712.84" stroke="rgba(150, 239, 21, 0.09)" stroke-width="1.5"></path><path d="M30.83 618.58L185.7 612.56" stroke="rgba(150, 239, 21, 0.09)" stroke-width="1.5"></path><path d="M52.92 712.84L52.92 712.84" stroke="rgba(150, 239, 21, 0.09)" stroke-width="1.5"></path><path d="M52.92 712.84L33.37 830.22" stroke="rgba(150, 239, 21, 0.09)" stroke-width="1.5"></path><path d="M33.37 830.22L33.37 830.22" stroke="rgba(150, 239, 21, 0.09)" stroke-width="1.5"></path><path d="M48.55 948.77L48.55 948.77" stroke="rgba(150, 239, 21, 0.09)" stroke-width="1.5"></path><path d="M48.55 948.77L33.37 830.22" stroke="rgba(150, 239, 21, 0.09)" stroke-width="1.5"></path><path d="M48.55 948.77L192.19 967.87" stroke="rgba(150, 239, 21, 0.09)" stroke-width="1.5"></path><path d="M48.55 948.77L-40.46 758.02" stroke="rgba(150, 239, 21, 0.09)" stroke-width="1.5"></path><path d="M159.04 479.55L159.04 479.55" stroke="rgba(150, 239, 21, 0.09)" stroke-width="1.5"></path><path d="M159.04 479.55L254.43 384.35" stroke="rgba(150, 239, 21, 0.09)" stroke-width="1.5"></path><path d="M159.04 479.55L185.7 612.56" stroke="rgba(150, 239, 21, 0.09)" stroke-width="1.5"></path><path d="M159.04 479.55L305.37 498.56" stroke="rgba(150, 239, 21, 0.09)" stroke-width="1.5"></path><path d="M159.04 479.55L30.83 618.58" stroke="rgba(150, 239, 21, 0.09)" stroke-width="1.5"></path><path d="M159.04 479.55L297.06 642.54" stroke="rgba(150, 239, 21, 0.09)" stroke-width="1.5"></path><path d="M159.04 479.55L193.08 715.52" stroke="rgba(150, 239, 21, 0.09)" stroke-width="1.5"></path><path d="M185.7 612.56L185.7 612.56" stroke="rgba(150, 239, 21, 0.09)" stroke-width="1.5"></path><path d="M185.7 612.56L193.08 715.52" stroke="rgba(150, 239, 21, 0.09)" stroke-width="1.5"></path><path d="M185.7 612.56L297.06 642.54" stroke="rgba(150, 239, 21, 0.09)" stroke-width="1.5"></path><path d="M185.7 612.56L268.53 723.19" stroke="rgba(150, 239, 21, 0.09)" stroke-width="1.5"></path><path d="M185.7 612.56L305.37 498.56" stroke="rgba(150, 239, 21, 0.09)" stroke-width="1.5"></path><path d="M193.08 715.52L193.08 715.52" stroke="rgba(150, 239, 21, 0.09)" stroke-width="1.5"></path><path d="M193.08 715.52L268.53 723.19" stroke="rgba(150, 239, 21, 0.09)" stroke-width="1.5"></path><path d="M193.08 715.52L297.06 642.54" stroke="rgba(150, 239, 21, 0.09)" stroke-width="1.5"></path><path d="M192.19 967.87L192.19 967.87" stroke="rgba(150, 239, 21, 0.09)" stroke-width="1.5"></path><path d="M192.19 967.87L272.81 930.23" stroke="rgba(150, 239, 21, 0.09)" stroke-width="1.5"></path><path d="M192.19 967.87L264.38 856.01" stroke="rgba(150, 239, 21, 0.09)" stroke-width="1.5"></path><path d="M287.23 275.46L287.23 275.46" stroke="rgba(150, 239, 21, 0.09)" stroke-width="1.5"></path><path d="M287.23 275.46L385.46 302.84" stroke="rgba(150, 239, 21, 0.09)" stroke-width="1.5"></path><path d="M287.23 275.46L254.43 384.35" stroke="rgba(150, 239, 21, 0.09)" stroke-width="1.5"></path><path d="M287.23 275.46L402.21 185.29" stroke="rgba(150, 239, 21, 0.09)" stroke-width="1.5"></path><path d="M287.23 275.46L416.97 374.65" stroke="rgba(150, 239, 21, 0.09)" stroke-width="1.5"></path><path d="M287.23 275.46L489.31 278.15" stroke="rgba(150, 239, 21, 0.09)" stroke-width="1.5"></path><path d="M287.23 275.46L305.37 498.56" stroke="rgba(150, 239, 21, 0.09)" stroke-width="1.5"></path><path d="M254.43 384.35L254.43 384.35" stroke="rgba(150, 239, 21, 0.09)" stroke-width="1.5"></path><path d="M254.43 384.35L305.37 498.56" stroke="rgba(150, 239, 21, 0.09)" stroke-width="1.5"></path><path d="M254.43 384.35L385.46 302.84" stroke="rgba(150, 239, 21, 0.09)" stroke-width="1.5"></path><path d="M305.37 498.56L305.37 498.56" stroke="rgba(150, 239, 21, 0.09)" stroke-width="1.5"></path><path d="M305.37 498.56L395.34 518.06" stroke="rgba(150, 239, 21, 0.09)" stroke-width="1.5"></path><path d="M305.37 498.56L297.06 642.54" stroke="rgba(150, 239, 21, 0.09)" stroke-width="1.5"></path><path d="M305.37 498.56L372.9 630.53" stroke="rgba(150, 239, 21, 0.09)" stroke-width="1.5"></path><path d="M297.06 642.54L297.06 642.54" stroke="rgba(150, 239, 21, 0.09)" stroke-width="1.5"></path><path d="M297.06 642.54L372.9 630.53" stroke="rgba(150, 239, 21, 0.09)" stroke-width="1.5"></path><path d="M297.06 642.54L268.53 723.19" stroke="rgba(150, 239, 21, 0.09)" stroke-width="1.5"></path><path d="M268.53 723.19L268.53 723.19" stroke="rgba(150, 239, 21, 0.09)" stroke-width="1.5"></path><path d="M268.53 723.19L264.38 856.01" stroke="rgba(150, 239, 21, 0.09)" stroke-width="1.5"></path><path d="M264.38 856.01L264.38 856.01" stroke="rgba(150, 239, 21, 0.09)" stroke-width="1.5"></path><path d="M264.38 856.01L272.81 930.23" stroke="rgba(150, 239, 21, 0.09)" stroke-width="1.5"></path><path d="M264.38 856.01L385.75 847.12" stroke="rgba(150, 239, 21, 0.09)" stroke-width="1.5"></path><path d="M272.81 930.23L272.81 930.23" stroke="rgba(150, 239, 21, 0.09)" stroke-width="1.5"></path><path d="M272.81 930.23L387.89 961.55" stroke="rgba(150, 239, 21, 0.09)" stroke-width="1.5"></path><path d="M272.81 930.23L385.75 847.12" stroke="rgba(150, 239, 21, 0.09)" stroke-width="1.5"></path><path d="M272.81 930.23L268.53 723.19" stroke="rgba(150, 239, 21, 0.09)" stroke-width="1.5"></path><path d="M391.87 -67.95L391.87 -67.95" stroke="rgba(150, 239, 21, 0.09)" stroke-width="1.5"></path><path d="M391.87 -67.95L488.03 -42.77" stroke="rgba(150, 239, 21, 0.09)" stroke-width="1.5"></path><path d="M391.87 -67.95L393.53 32.87" stroke="rgba(150, 239, 21, 0.09)" stroke-width="1.5"></path><path d="M391.87 -67.95L511.63 46.33" stroke="rgba(150, 239, 21, 0.09)" stroke-width="1.5"></path><path d="M393.53 32.87L393.53 32.87" stroke="rgba(150, 239, 21, 0.09)" stroke-width="1.5"></path><path d="M402.21 185.29L402.21 185.29" stroke="rgba(150, 239, 21, 0.09)" stroke-width="1.5"></path><path d="M402.21 185.29L482.93 141.23" stroke="rgba(150, 239, 21, 0.09)" stroke-width="1.5"></path><path d="M402.21 185.29L385.46 302.84" stroke="rgba(150, 239, 21, 0.09)" stroke-width="1.5"></path><path d="M402.21 185.29L489.31 278.15" stroke="rgba(150, 239, 21, 0.09)" stroke-width="1.5"></path><path d="M385.46 302.84L385.46 302.84" stroke="rgba(150, 239, 21, 0.09)" stroke-width="1.5"></path><path d="M385.46 302.84L416.97 374.65" stroke="rgba(150, 239, 21, 0.09)" stroke-width="1.5"></path><path d="M385.46 302.84L489.31 278.15" stroke="rgba(150, 239, 21, 0.09)" stroke-width="1.5"></path><path d="M416.97 374.65L416.97 374.65" stroke="rgba(150, 239, 21, 0.09)" stroke-width="1.5"></path><path d="M416.97 374.65L481.03 404.65" stroke="rgba(150, 239, 21, 0.09)" stroke-width="1.5"></path><path d="M416.97 374.65L489.31 278.15" stroke="rgba(150, 239, 21, 0.09)" stroke-width="1.5"></path><path d="M416.97 374.65L502.3 488.03" stroke="rgba(150, 239, 21, 0.09)" stroke-width="1.5"></path><path d="M416.97 374.65L395.34 518.06" stroke="rgba(150, 239, 21, 0.09)" stroke-width="1.5"></path><path d="M395.34 518.06L395.34 518.06" stroke="rgba(150, 239, 21, 0.09)" stroke-width="1.5"></path><path d="M395.34 518.06L502.3 488.03" stroke="rgba(150, 239, 21, 0.09)" stroke-width="1.5"></path><path d="M395.34 518.06L372.9 630.53" stroke="rgba(150, 239, 21, 0.09)" stroke-width="1.5"></path><path d="M395.34 518.06L480.47 630.39" stroke="rgba(150, 239, 21, 0.09)" stroke-width="1.5"></path><path d="M395.34 518.06L481.03 404.65" stroke="rgba(150, 239, 21, 0.09)" stroke-width="1.5"></path><path d="M372.9 630.53L372.9 630.53" stroke="rgba(150, 239, 21, 0.09)" stroke-width="1.5"></path><path d="M372.9 630.53L414.27 727.35" stroke="rgba(150, 239, 21, 0.09)" stroke-width="1.5"></path><path d="M372.9 630.53L480.47 630.39" stroke="rgba(150, 239, 21, 0.09)" stroke-width="1.5"></path><path d="M414.27 727.35L414.27 727.35" stroke="rgba(150, 239, 21, 0.09)" stroke-width="1.5"></path><path d="M414.27 727.35L478.19 733.16" stroke="rgba(150, 239, 21, 0.09)" stroke-width="1.5"></path><path d="M414.27 727.35L485.9 820.08" stroke="rgba(150, 239, 21, 0.09)" stroke-width="1.5"></path><path d="M414.27 727.35L480.47 630.39" stroke="rgba(150, 239, 21, 0.09)" stroke-width="1.5"></path><path d="M414.27 727.35L385.75 847.12" stroke="rgba(150, 239, 21, 0.09)" stroke-width="1.5"></path><path d="M385.75 847.12L385.75 847.12" stroke="rgba(150, 239, 21, 0.09)" stroke-width="1.5"></path><path d="M385.75 847.12L485.9 820.08" stroke="rgba(150, 239, 21, 0.09)" stroke-width="1.5"></path><path d="M385.75 847.12L387.89 961.55" stroke="rgba(150, 239, 21, 0.09)" stroke-width="1.5"></path><path d="M387.89 961.55L387.89 961.55" stroke="rgba(150, 239, 21, 0.09)" stroke-width="1.5"></path><path d="M488.03 -42.77L488.03 -42.77" stroke="rgba(150, 239, 21, 0.09)" stroke-width="1.5"></path><path d="M488.03 -42.77L511.63 46.33" stroke="rgba(150, 239, 21, 0.09)" stroke-width="1.5"></path><path d="M511.63 46.33L511.63 46.33" stroke="rgba(150, 239, 21, 0.09)" stroke-width="1.5"></path><path d="M511.63 46.33L482.93 141.23" stroke="rgba(150, 239, 21, 0.09)" stroke-width="1.5"></path><path d="M511.63 46.33L618.44 36.67" stroke="rgba(150, 239, 21, 0.09)" stroke-width="1.5"></path><path d="M511.63 46.33L393.53 32.87" stroke="rgba(150, 239, 21, 0.09)" stroke-width="1.5"></path><path d="M511.63 46.33L606.72 -77.05" stroke="rgba(150, 239, 21, 0.09)" stroke-width="1.5"></path><path d="M482.93 141.23L482.93 141.23" stroke="rgba(150, 239, 21, 0.09)" stroke-width="1.5"></path><path d="M482.93 141.23L598.61 184.7" stroke="rgba(150, 239, 21, 0.09)" stroke-width="1.5"></path><path d="M482.93 141.23L489.31 278.15" stroke="rgba(150, 239, 21, 0.09)" stroke-width="1.5"></path><path d="M482.93 141.23L393.53 32.87" stroke="rgba(150, 239, 21, 0.09)" stroke-width="1.5"></path><path d="M489.31 278.15L489.31 278.15" stroke="rgba(150, 239, 21, 0.09)" stroke-width="1.5"></path><path d="M481.03 404.65L481.03 404.65" stroke="rgba(150, 239, 21, 0.09)" stroke-width="1.5"></path><path d="M481.03 404.65L502.3 488.03" stroke="rgba(150, 239, 21, 0.09)" stroke-width="1.5"></path><path d="M481.03 404.65L489.31 278.15" stroke="rgba(150, 239, 21, 0.09)" stroke-width="1.5"></path><path d="M481.03 404.65L617.11 394.2" stroke="rgba(150, 239, 21, 0.09)" stroke-width="1.5"></path><path d="M481.03 404.65L385.46 302.84" stroke="rgba(150, 239, 21, 0.09)" stroke-width="1.5"></path><path d="M502.3 488.03L502.3 488.03" stroke="rgba(150, 239, 21, 0.09)" stroke-width="1.5"></path><path d="M502.3 488.03L602.74 518.59" stroke="rgba(150, 239, 21, 0.09)" stroke-width="1.5"></path><path d="M480.47 630.39L480.47 630.39" stroke="rgba(150, 239, 21, 0.09)" stroke-width="1.5"></path><path d="M480.47 630.39L478.19 733.16" stroke="rgba(150, 239, 21, 0.09)" stroke-width="1.5"></path><path d="M480.47 630.39L613.87 614.45" stroke="rgba(150, 239, 21, 0.09)" stroke-width="1.5"></path><path d="M478.19 733.16L478.19 733.16" stroke="rgba(150, 239, 21, 0.09)" stroke-width="1.5"></path><path d="M485.9 820.08L485.9 820.08" stroke="rgba(150, 239, 21, 0.09)" stroke-width="1.5"></path><path d="M485.9 820.08L478.19 733.16" stroke="rgba(150, 239, 21, 0.09)" stroke-width="1.5"></path><path d="M504.8 930.29L504.8 930.29" stroke="rgba(150, 239, 21, 0.09)" stroke-width="1.5"></path><path d="M504.8 930.29L605.36 973.38" stroke="rgba(150, 239, 21, 0.09)" stroke-width="1.5"></path><path d="M504.8 930.29L593.77 863.28" stroke="rgba(150, 239, 21, 0.09)" stroke-width="1.5"></path><path d="M504.8 930.29L485.9 820.08" stroke="rgba(150, 239, 21, 0.09)" stroke-width="1.5"></path><path d="M504.8 930.29L387.89 961.55" stroke="rgba(150, 239, 21, 0.09)" stroke-width="1.5"></path><path d="M606.72 -77.05L606.72 -77.05" stroke="rgba(150, 239, 21, 0.09)" stroke-width="1.5"></path><path d="M606.72 -77.05L618.44 36.67" stroke="rgba(150, 239, 21, 0.09)" stroke-width="1.5"></path><path d="M618.44 36.67L618.44 36.67" stroke="rgba(150, 239, 21, 0.09)" stroke-width="1.5"></path><path d="M618.44 36.67L598.61 184.7" stroke="rgba(150, 239, 21, 0.09)" stroke-width="1.5"></path><path d="M618.44 36.67L488.03 -42.77" stroke="rgba(150, 239, 21, 0.09)" stroke-width="1.5"></path><path d="M618.44 36.67L482.93 141.23" stroke="rgba(150, 239, 21, 0.09)" stroke-width="1.5"></path><path d="M598.61 184.7L598.61 184.7" stroke="rgba(150, 239, 21, 0.09)" stroke-width="1.5"></path><path d="M598.61 184.7L613.84 306.29" stroke="rgba(150, 239, 21, 0.09)" stroke-width="1.5"></path><path d="M613.84 306.29L613.84 306.29" stroke="rgba(150, 239, 21, 0.09)" stroke-width="1.5"></path><path d="M613.84 306.29L617.11 394.2" stroke="rgba(150, 239, 21, 0.09)" stroke-width="1.5"></path><path d="M613.84 306.29L489.31 278.15" stroke="rgba(150, 239, 21, 0.09)" stroke-width="1.5"></path><path d="M613.84 306.29L481.03 404.65" stroke="rgba(150, 239, 21, 0.09)" stroke-width="1.5"></path><path d="M617.11 394.2L617.11 394.2" stroke="rgba(150, 239, 21, 0.09)" stroke-width="1.5"></path><path d="M617.11 394.2L602.74 518.59" stroke="rgba(150, 239, 21, 0.09)" stroke-width="1.5"></path><path d="M602.74 518.59L602.74 518.59" stroke="rgba(150, 239, 21, 0.09)" stroke-width="1.5"></path><path d="M602.74 518.59L613.87 614.45" stroke="rgba(150, 239, 21, 0.09)" stroke-width="1.5"></path><path d="M613.87 614.45L613.87 614.45" stroke="rgba(150, 239, 21, 0.09)" stroke-width="1.5"></path><path d="M613.87 614.45L614.82 704.11" stroke="rgba(150, 239, 21, 0.09)" stroke-width="1.5"></path><path d="M614.82 704.11L614.82 704.11" stroke="rgba(150, 239, 21, 0.09)" stroke-width="1.5"></path><path d="M614.82 704.11L478.19 733.16" stroke="rgba(150, 239, 21, 0.09)" stroke-width="1.5"></path><path d="M614.82 704.11L480.47 630.39" stroke="rgba(150, 239, 21, 0.09)" stroke-width="1.5"></path><path d="M614.82 704.11L593.77 863.28" stroke="rgba(150, 239, 21, 0.09)" stroke-width="1.5"></path><path d="M614.82 704.11L485.9 820.08" stroke="rgba(150, 239, 21, 0.09)" stroke-width="1.5"></path><path d="M593.77 863.28L593.77 863.28" stroke="rgba(150, 239, 21, 0.09)" stroke-width="1.5"></path><path d="M593.77 863.28L605.36 973.38" stroke="rgba(150, 239, 21, 0.09)" stroke-width="1.5"></path><path d="M593.77 863.28L485.9 820.08" stroke="rgba(150, 239, 21, 0.09)" stroke-width="1.5"></path><path d="M605.36 973.38L605.36 973.38" stroke="rgba(150, 239, 21, 0.09)" stroke-width="1.5"></path><path d="M605.36 973.38L485.9 820.08" stroke="rgba(150, 239, 21, 0.09)" stroke-width="1.5"></path><path d="M605.36 973.38L387.89 961.55" stroke="rgba(150, 239, 21, 0.09)" stroke-width="1.5"></path><circle r="5" cx="-36.56" cy="631.92" fill="rgba(150, 239, 21, 0.09)"></circle><circle r="5" cx="-40.46" cy="758.02" fill="rgba(150, 239, 21, 0.09)"></circle><circle r="5" cx="-34.93" cy="852.4" fill="rgba(150, 239, 21, 0.09)"></circle><circle r="5" cx="-69.45" cy="952.36" fill="rgba(150, 239, 21, 0.09)"></circle><circle r="5" cx="30.83" cy="618.58" fill="rgba(150, 239, 21, 0.09)"></circle><circle r="5" cx="52.92" cy="712.84" fill="rgba(150, 239, 21, 0.09)"></circle><circle r="5" cx="33.37" cy="830.22" fill="rgba(150, 239, 21, 0.09)"></circle><circle r="5" cx="48.55" cy="948.77" fill="rgba(150, 239, 21, 0.09)"></circle><circle r="5" cx="159.04" cy="479.55" fill="rgba(150, 239, 21, 0.09)"></circle><circle r="5" cx="185.7" cy="612.56" fill="rgba(150, 239, 21, 0.09)"></circle><circle r="5" cx="193.08" cy="715.52" fill="rgba(150, 239, 21, 0.09)"></circle><circle r="5" cx="192.19" cy="967.87" fill="rgba(150, 239, 21, 0.09)"></circle><circle r="5" cx="287.23" cy="275.46" fill="rgba(150, 239, 21, 0.09)"></circle><circle r="5" cx="254.43" cy="384.35" fill="rgba(150, 239, 21, 0.09)"></circle><circle r="5" cx="305.37" cy="498.56" fill="rgba(150, 239, 21, 0.09)"></circle><circle r="5" cx="297.06" cy="642.54" fill="rgba(150, 239, 21, 0.09)"></circle><circle r="5" cx="268.53" cy="723.19" fill="rgba(150, 239, 21, 0.09)"></circle><circle r="5" cx="264.38" cy="856.01" fill="rgba(150, 239, 21, 0.09)"></circle><circle r="5" cx="272.81" cy="930.23" fill="rgba(150, 239, 21, 0.09)"></circle><circle r="5" cx="391.87" cy="-67.95" fill="rgba(150, 239, 21, 0.09)"></circle><circle r="5" cx="393.53" cy="32.87" fill="rgba(150, 239, 21, 0.09)"></circle><circle r="5" cx="402.21" cy="185.29" fill="rgba(150, 239, 21, 0.09)"></circle><circle r="5" cx="385.46" cy="302.84" fill="rgba(150, 239, 21, 0.09)"></circle><circle r="5" cx="416.97" cy="374.65" fill="rgba(150, 239, 21, 0.09)"></circle><circle r="5" cx="395.34" cy="518.06" fill="rgba(150, 239, 21, 0.09)"></circle><circle r="5" cx="372.9" cy="630.53" fill="rgba(150, 239, 21, 0.09)"></circle><circle r="5" cx="414.27" cy="727.35" fill="rgba(150, 239, 21, 0.09)"></circle><circle r="5" cx="385.75" cy="847.12" fill="rgba(150, 239, 21, 0.09)"></circle><circle r="5" cx="387.89" cy="961.55" fill="rgba(150, 239, 21, 0.09)"></circle><circle r="5" cx="488.03" cy="-42.77" fill="rgba(150, 239, 21, 0.09)"></circle><circle r="5" cx="511.63" cy="46.33" fill="rgba(150, 239, 21, 0.09)"></circle><circle r="5" cx="482.93" cy="141.23" fill="rgba(150, 239, 21, 0.09)"></circle><circle r="5" cx="489.31" cy="278.15" fill="rgba(150, 239, 21, 0.09)"></circle><circle r="5" cx="481.03" cy="404.65" fill="rgba(150, 239, 21, 0.09)"></circle><circle r="5" cx="502.3" cy="488.03" fill="rgba(150, 239, 21, 0.09)"></circle><circle r="5" cx="480.47" cy="630.39" fill="rgba(150, 239, 21, 0.09)"></circle><circle r="5" cx="478.19" cy="733.16" fill="rgba(150, 239, 21, 0.09)"></circle><circle r="5" cx="485.9" cy="820.08" fill="rgba(150, 239, 21, 0.09)"></circle><circle r="5" cx="504.8" cy="930.29" fill="rgba(150, 239, 21, 0.09)"></circle><circle r="5" cx="606.72" cy="-77.05" fill="rgba(150, 239, 21, 0.09)"></circle><circle r="5" cx="618.44" cy="36.67" fill="rgba(150, 239, 21, 0.09)"></circle><circle r="5" cx="598.61" cy="184.7" fill="rgba(150, 239, 21, 0.09)"></circle><circle r="5" cx="613.84" cy="306.29" fill="rgba(150, 239, 21, 0.09)"></circle><circle r="5" cx="617.11" cy="394.2" fill="rgba(150, 239, 21, 0.09)"></circle><circle r="5" cx="602.74" cy="518.59" fill="rgba(150, 239, 21, 0.09)"></circle><circle r="5" cx="613.87" cy="614.45" fill="rgba(150, 239, 21, 0.09)"></circle><circle r="5" cx="614.82" cy="704.11" fill="rgba(150, 239, 21, 0.09)"></circle><circle r="5" cx="593.77" cy="863.28" fill="rgba(150, 239, 21, 0.09)"></circle><circle r="5" cx="605.36" cy="973.38" fill="rgba(150, 239, 21, 0.09)"></circle><path d="M273.35 736.44L273.35 736.44" stroke="hsla(143.7, 96.6%, 30.1%, 0.73)" stroke-width="1.5"></path><path d="M273.35 736.44L192.22 746.03" stroke="hsla(143.7, 96.6%, 30.1%, 0.73)" stroke-width="1.5"></path><path d="M273.35 736.44L280.18 832.64" stroke="hsla(143.7, 96.6%, 30.1%, 0.73)" stroke-width="1.5"></path><path d="M273.35 736.44L373.53 718.11" stroke="hsla(143.7, 96.6%, 30.1%, 0.73)" stroke-width="1.5"></path><path d="M273.35 736.44L261.51 604.7" stroke="hsla(143.7, 96.6%, 30.1%, 0.73)" stroke-width="1.5"></path><path d="M273.35 736.44L393.92 863.17" stroke="hsla(143.7, 96.6%, 30.1%, 0.73)" stroke-width="1.5"></path><path d="M273.28 933.81L273.28 933.81" stroke="hsla(143.7, 96.6%, 30.1%, 0.73)" stroke-width="1.5"></path><path d="M273.28 933.81L192.54 968.18" stroke="hsla(143.7, 96.6%, 30.1%, 0.73)" stroke-width="1.5"></path><path d="M273.28 933.81L280.18 832.64" stroke="hsla(143.7, 96.6%, 30.1%, 0.73)" stroke-width="1.5"></path><path d="M273.28 933.81L375.51 948.95" stroke="hsla(143.7, 96.6%, 30.1%, 0.73)" stroke-width="1.5"></path><path d="M419.15 58.91L419.15 58.91" stroke="hsla(143.7, 96.6%, 30.1%, 0.73)" stroke-width="1.5"></path><path d="M419.15 58.91L526.37 70.93" stroke="hsla(143.7, 96.6%, 30.1%, 0.73)" stroke-width="1.5"></path><path d="M419.15 58.91L392.05 169.51" stroke="hsla(143.7, 96.6%, 30.1%, 0.73)" stroke-width="1.5"></path><path d="M419.15 58.91L486.06 156.65" stroke="hsla(143.7, 96.6%, 30.1%, 0.73)" stroke-width="1.5"></path><path d="M419.15 58.91L513.71 -63.19" stroke="hsla(143.7, 96.6%, 30.1%, 0.73)" stroke-width="1.5"></path><path d="M383.05 366.44L383.05 366.44" stroke="hsla(143.7, 96.6%, 30.1%, 0.73)" stroke-width="1.5"></path><path d="M383.05 366.44L406.94 521.46" stroke="hsla(143.7, 96.6%, 30.1%, 0.73)" stroke-width="1.5"></path><path d="M383.05 366.44L507.37 266.32" stroke="hsla(143.7, 96.6%, 30.1%, 0.73)" stroke-width="1.5"></path><path d="M383.05 366.44L510.34 502.96" stroke="hsla(143.7, 96.6%, 30.1%, 0.73)" stroke-width="1.5"></path><path d="M383.05 366.44L392.05 169.51" stroke="hsla(143.7, 96.6%, 30.1%, 0.73)" stroke-width="1.5"></path><path d="M383.05 366.44L486.06 156.65" stroke="hsla(143.7, 96.6%, 30.1%, 0.73)" stroke-width="1.5"></path><path d="M383.05 366.44L617.7 405.81" stroke="hsla(143.7, 96.6%, 30.1%, 0.73)" stroke-width="1.5"></path><path d="M375.51 948.95L375.51 948.95" stroke="hsla(143.7, 96.6%, 30.1%, 0.73)" stroke-width="1.5"></path><path d="M375.51 948.95L393.92 863.17" stroke="hsla(143.7, 96.6%, 30.1%, 0.73)" stroke-width="1.5"></path><path d="M375.51 948.95L483.99 929.84" stroke="hsla(143.7, 96.6%, 30.1%, 0.73)" stroke-width="1.5"></path><path d="M526.37 70.93L526.37 70.93" stroke="hsla(143.7, 96.6%, 30.1%, 0.73)" stroke-width="1.5"></path><path d="M526.37 70.93L486.06 156.65" stroke="hsla(143.7, 96.6%, 30.1%, 0.73)" stroke-width="1.5"></path><path d="M526.37 70.93L615.35 36.22" stroke="hsla(143.7, 96.6%, 30.1%, 0.73)" stroke-width="1.5"></path><path d="M510.34 502.96L510.34 502.96" stroke="hsla(143.7, 96.6%, 30.1%, 0.73)" stroke-width="1.5"></path><path d="M510.34 502.96L406.94 521.46" stroke="hsla(143.7, 96.6%, 30.1%, 0.73)" stroke-width="1.5"></path><path d="M510.34 502.96L628.78 485.83" stroke="hsla(143.7, 96.6%, 30.1%, 0.73)" stroke-width="1.5"></path><path d="M510.34 502.96L513.24 636.59" stroke="hsla(143.7, 96.6%, 30.1%, 0.73)" stroke-width="1.5"></path><path d="M483.99 929.84L483.99 929.84" stroke="hsla(143.7, 96.6%, 30.1%, 0.73)" stroke-width="1.5"></path><path d="M483.99 929.84L521.99 868.1" stroke="hsla(143.7, 96.6%, 30.1%, 0.73)" stroke-width="1.5"></path><path d="M628.19 273.17L628.19 273.17" stroke="hsla(143.7, 96.6%, 30.1%, 0.73)" stroke-width="1.5"></path><path d="M628.19 273.17L593.98 175.68" stroke="hsla(143.7, 96.6%, 30.1%, 0.73)" stroke-width="1.5"></path><path d="M628.19 273.17L507.37 266.32" stroke="hsla(143.7, 96.6%, 30.1%, 0.73)" stroke-width="1.5"></path><path d="M617.7 405.81L617.7 405.81" stroke="hsla(143.7, 96.6%, 30.1%, 0.73)" stroke-width="1.5"></path><path d="M617.7 405.81L628.78 485.83" stroke="hsla(143.7, 96.6%, 30.1%, 0.73)" stroke-width="1.5"></path><path d="M592.35 729.76L592.35 729.76" stroke="hsla(143.7, 96.6%, 30.1%, 0.73)" stroke-width="1.5"></path><path d="M592.35 729.76L491.06 746.93" stroke="hsla(143.7, 96.6%, 30.1%, 0.73)" stroke-width="1.5"></path><path d="M592.35 729.76L615.61 835.32" stroke="hsla(143.7, 96.6%, 30.1%, 0.73)" stroke-width="1.5"></path><path d="M592.35 729.76L513.24 636.59" stroke="hsla(143.7, 96.6%, 30.1%, 0.73)" stroke-width="1.5"></path><path d="M592.35 729.76L614.58 590.95" stroke="hsla(143.7, 96.6%, 30.1%, 0.73)" stroke-width="1.5"></path><path d="M592.35 729.76L521.99 868.1" stroke="hsla(143.7, 96.6%, 30.1%, 0.73)" stroke-width="1.5"></path><path d="M592.35 729.76L411.21 621.74" stroke="hsla(143.7, 96.6%, 30.1%, 0.73)" stroke-width="1.5"></path><path d="M615.61 835.32L615.61 835.32" stroke="hsla(143.7, 96.6%, 30.1%, 0.73)" stroke-width="1.5"></path><path d="M615.61 835.32L521.99 868.1" stroke="hsla(143.7, 96.6%, 30.1%, 0.73)" stroke-width="1.5"></path><path d="M615.61 835.32L617.74 947.18" stroke="hsla(143.7, 96.6%, 30.1%, 0.73)" stroke-width="1.5"></path><path d="M615.61 835.32L491.06 746.93" stroke="hsla(143.7, 96.6%, 30.1%, 0.73)" stroke-width="1.5"></path><path d="M-81.98 711.3L-81.98 711.3" stroke="hsla(143.7, 96.6%, 30.1%, 0.73)" stroke-width="1.5"></path><path d="M-81.98 711.3L39.18 819.99" stroke="hsla(143.7, 96.6%, 30.1%, 0.73)" stroke-width="1.5"></path><path d="M-81.98 711.3L-60.72 951.61" stroke="hsla(143.7, 96.6%, 30.1%, 0.73)" stroke-width="1.5"></path><path d="M-81.98 711.3L144.72 857.73" stroke="hsla(143.7, 96.6%, 30.1%, 0.73)" stroke-width="1.5"></path><path d="M-60.72 951.61L-60.72 951.61" stroke="hsla(143.7, 96.6%, 30.1%, 0.73)" stroke-width="1.5"></path><path d="M-60.72 951.61L61.38 940.51" stroke="hsla(143.7, 96.6%, 30.1%, 0.73)" stroke-width="1.5"></path><path d="M-60.72 951.61L39.18 819.99" stroke="hsla(143.7, 96.6%, 30.1%, 0.73)" stroke-width="1.5"></path><path d="M-60.72 951.61L144.72 857.73" stroke="hsla(143.7, 96.6%, 30.1%, 0.73)" stroke-width="1.5"></path><path d="M39.18 819.99L39.18 819.99" stroke="hsla(143.7, 96.6%, 30.1%, 0.73)" stroke-width="1.5"></path><path d="M39.18 819.99L144.72 857.73" stroke="hsla(143.7, 96.6%, 30.1%, 0.73)" stroke-width="1.5"></path><path d="M39.18 819.99L61.38 940.51" stroke="hsla(143.7, 96.6%, 30.1%, 0.73)" stroke-width="1.5"></path><path d="M61.38 940.51L61.38 940.51" stroke="hsla(143.7, 96.6%, 30.1%, 0.73)" stroke-width="1.5"></path><path d="M61.38 940.51L144.72 857.73" stroke="hsla(143.7, 96.6%, 30.1%, 0.73)" stroke-width="1.5"></path><path d="M192.22 746.03L192.22 746.03" stroke="hsla(143.7, 96.6%, 30.1%, 0.73)" stroke-width="1.5"></path><path d="M192.22 746.03L144.72 857.73" stroke="hsla(143.7, 96.6%, 30.1%, 0.73)" stroke-width="1.5"></path><path d="M192.22 746.03L280.18 832.64" stroke="hsla(143.7, 96.6%, 30.1%, 0.73)" stroke-width="1.5"></path><path d="M192.22 746.03L261.51 604.7" stroke="hsla(143.7, 96.6%, 30.1%, 0.73)" stroke-width="1.5"></path><path d="M192.22 746.03L39.18 819.99" stroke="hsla(143.7, 96.6%, 30.1%, 0.73)" stroke-width="1.5"></path><path d="M144.72 857.73L144.72 857.73" stroke="hsla(143.7, 96.6%, 30.1%, 0.73)" stroke-width="1.5"></path><path d="M144.72 857.73L192.54 968.18" stroke="hsla(143.7, 96.6%, 30.1%, 0.73)" stroke-width="1.5"></path><path d="M192.54 968.18L192.54 968.18" stroke="hsla(143.7, 96.6%, 30.1%, 0.73)" stroke-width="1.5"></path><path d="M261.51 604.7L261.51 604.7" stroke="hsla(143.7, 96.6%, 30.1%, 0.73)" stroke-width="1.5"></path><path d="M261.51 604.7L411.21 621.74" stroke="hsla(143.7, 96.6%, 30.1%, 0.73)" stroke-width="1.5"></path><path d="M261.51 604.7L373.53 718.11" stroke="hsla(143.7, 96.6%, 30.1%, 0.73)" stroke-width="1.5"></path><path d="M261.51 604.7L406.94 521.46" stroke="hsla(143.7, 96.6%, 30.1%, 0.73)" stroke-width="1.5"></path><path d="M261.51 604.7L280.18 832.64" stroke="hsla(143.7, 96.6%, 30.1%, 0.73)" stroke-width="1.5"></path><path d="M280.18 832.64L280.18 832.64" stroke="hsla(143.7, 96.6%, 30.1%, 0.73)" stroke-width="1.5"></path><path d="M392.05 169.51L392.05 169.51" stroke="hsla(143.7, 96.6%, 30.1%, 0.73)" stroke-width="1.5"></path><path d="M392.05 169.51L486.06 156.65" stroke="hsla(143.7, 96.6%, 30.1%, 0.73)" stroke-width="1.5"></path><path d="M392.05 169.51L507.37 266.32" stroke="hsla(143.7, 96.6%, 30.1%, 0.73)" stroke-width="1.5"></path><path d="M406.94 521.46L406.94 521.46" stroke="hsla(143.7, 96.6%, 30.1%, 0.73)" stroke-width="1.5"></path><path d="M406.94 521.46L411.21 621.74" stroke="hsla(143.7, 96.6%, 30.1%, 0.73)" stroke-width="1.5"></path><path d="M406.94 521.46L513.24 636.59" stroke="hsla(143.7, 96.6%, 30.1%, 0.73)" stroke-width="1.5"></path><path d="M411.21 621.74L411.21 621.74" stroke="hsla(143.7, 96.6%, 30.1%, 0.73)" stroke-width="1.5"></path><path d="M411.21 621.74L513.24 636.59" stroke="hsla(143.7, 96.6%, 30.1%, 0.73)" stroke-width="1.5"></path><path d="M411.21 621.74L373.53 718.11" stroke="hsla(143.7, 96.6%, 30.1%, 0.73)" stroke-width="1.5"></path><path d="M411.21 621.74L491.06 746.93" stroke="hsla(143.7, 96.6%, 30.1%, 0.73)" stroke-width="1.5"></path><path d="M373.53 718.11L373.53 718.11" stroke="hsla(143.7, 96.6%, 30.1%, 0.73)" stroke-width="1.5"></path><path d="M373.53 718.11L491.06 746.93" stroke="hsla(143.7, 96.6%, 30.1%, 0.73)" stroke-width="1.5"></path><path d="M373.53 718.11L393.92 863.17" stroke="hsla(143.7, 96.6%, 30.1%, 0.73)" stroke-width="1.5"></path><path d="M393.92 863.17L393.92 863.17" stroke="hsla(143.7, 96.6%, 30.1%, 0.73)" stroke-width="1.5"></path><path d="M393.92 863.17L483.99 929.84" stroke="hsla(143.7, 96.6%, 30.1%, 0.73)" stroke-width="1.5"></path><path d="M393.92 863.17L280.18 832.64" stroke="hsla(143.7, 96.6%, 30.1%, 0.73)" stroke-width="1.5"></path><path d="M393.92 863.17L521.99 868.1" stroke="hsla(143.7, 96.6%, 30.1%, 0.73)" stroke-width="1.5"></path><path d="M393.92 863.17L273.28 933.81" stroke="hsla(143.7, 96.6%, 30.1%, 0.73)" stroke-width="1.5"></path><path d="M513.71 -63.19L513.71 -63.19" stroke="hsla(143.7, 96.6%, 30.1%, 0.73)" stroke-width="1.5"></path><path d="M513.71 -63.19L607.92 -37.57" stroke="hsla(143.7, 96.6%, 30.1%, 0.73)" stroke-width="1.5"></path><path d="M513.71 -63.19L526.37 70.93" stroke="hsla(143.7, 96.6%, 30.1%, 0.73)" stroke-width="1.5"></path><path d="M513.71 -63.19L615.35 36.22" stroke="hsla(143.7, 96.6%, 30.1%, 0.73)" stroke-width="1.5"></path><path d="M513.71 -63.19L486.06 156.65" stroke="hsla(143.7, 96.6%, 30.1%, 0.73)" stroke-width="1.5"></path><path d="M513.71 -63.19L593.98 175.68" stroke="hsla(143.7, 96.6%, 30.1%, 0.73)" stroke-width="1.5"></path><path d="M486.06 156.65L486.06 156.65" stroke="hsla(143.7, 96.6%, 30.1%, 0.73)" stroke-width="1.5"></path><path d="M486.06 156.65L593.98 175.68" stroke="hsla(143.7, 96.6%, 30.1%, 0.73)" stroke-width="1.5"></path><path d="M486.06 156.65L507.37 266.32" stroke="hsla(143.7, 96.6%, 30.1%, 0.73)" stroke-width="1.5"></path><path d="M507.37 266.32L507.37 266.32" stroke="hsla(143.7, 96.6%, 30.1%, 0.73)" stroke-width="1.5"></path><path d="M507.37 266.32L593.98 175.68" stroke="hsla(143.7, 96.6%, 30.1%, 0.73)" stroke-width="1.5"></path><path d="M513.24 636.59L513.24 636.59" stroke="hsla(143.7, 96.6%, 30.1%, 0.73)" stroke-width="1.5"></path><path d="M513.24 636.59L614.58 590.95" stroke="hsla(143.7, 96.6%, 30.1%, 0.73)" stroke-width="1.5"></path><path d="M513.24 636.59L491.06 746.93" stroke="hsla(143.7, 96.6%, 30.1%, 0.73)" stroke-width="1.5"></path><path d="M491.06 746.93L491.06 746.93" stroke="hsla(143.7, 96.6%, 30.1%, 0.73)" stroke-width="1.5"></path><path d="M491.06 746.93L521.99 868.1" stroke="hsla(143.7, 96.6%, 30.1%, 0.73)" stroke-width="1.5"></path><path d="M491.06 746.93L393.92 863.17" stroke="hsla(143.7, 96.6%, 30.1%, 0.73)" stroke-width="1.5"></path><path d="M521.99 868.1L521.99 868.1" stroke="hsla(143.7, 96.6%, 30.1%, 0.73)" stroke-width="1.5"></path><path d="M607.92 -37.57L607.92 -37.57" stroke="hsla(143.7, 96.6%, 30.1%, 0.73)" stroke-width="1.5"></path><path d="M607.92 -37.57L615.35 36.22" stroke="hsla(143.7, 96.6%, 30.1%, 0.73)" stroke-width="1.5"></path><path d="M607.92 -37.57L526.37 70.93" stroke="hsla(143.7, 96.6%, 30.1%, 0.73)" stroke-width="1.5"></path><path d="M615.35 36.22L615.35 36.22" stroke="hsla(143.7, 96.6%, 30.1%, 0.73)" stroke-width="1.5"></path><path d="M615.35 36.22L593.98 175.68" stroke="hsla(143.7, 96.6%, 30.1%, 0.73)" stroke-width="1.5"></path><path d="M593.98 175.68L593.98 175.68" stroke="hsla(143.7, 96.6%, 30.1%, 0.73)" stroke-width="1.5"></path><path d="M593.98 175.68L526.37 70.93" stroke="hsla(143.7, 96.6%, 30.1%, 0.73)" stroke-width="1.5"></path><path d="M628.78 485.83L628.78 485.83" stroke="hsla(143.7, 96.6%, 30.1%, 0.73)" stroke-width="1.5"></path><path d="M628.78 485.83L614.58 590.95" stroke="hsla(143.7, 96.6%, 30.1%, 0.73)" stroke-width="1.5"></path><path d="M628.78 485.83L513.24 636.59" stroke="hsla(143.7, 96.6%, 30.1%, 0.73)" stroke-width="1.5"></path><path d="M628.78 485.83L628.19 273.17" stroke="hsla(143.7, 96.6%, 30.1%, 0.73)" stroke-width="1.5"></path><path d="M614.58 590.95L614.58 590.95" stroke="hsla(143.7, 96.6%, 30.1%, 0.73)" stroke-width="1.5"></path><path d="M614.58 590.95L510.34 502.96" stroke="hsla(143.7, 96.6%, 30.1%, 0.73)" stroke-width="1.5"></path><path d="M614.58 590.95L617.7 405.81" stroke="hsla(143.7, 96.6%, 30.1%, 0.73)" stroke-width="1.5"></path><path d="M617.74 947.18L617.74 947.18" stroke="hsla(143.7, 96.6%, 30.1%, 0.73)" stroke-width="1.5"></path><path d="M617.74 947.18L521.99 868.1" stroke="hsla(143.7, 96.6%, 30.1%, 0.73)" stroke-width="1.5"></path><circle r="25" cx="273.35" cy="736.44" fill="url(&quot;#SvgjsRadialGradient1447&quot;)"></circle><circle r="25" cx="273.28" cy="933.81" fill="url(&quot;#SvgjsRadialGradient1447&quot;)"></circle><circle r="25" cx="419.15" cy="58.91" fill="url(&quot;#SvgjsRadialGradient1447&quot;)"></circle><circle r="25" cx="383.05" cy="366.44" fill="url(&quot;#SvgjsRadialGradient1447&quot;)"></circle><circle r="25" cx="375.51" cy="948.95" fill="url(&quot;#SvgjsRadialGradient1447&quot;)"></circle><circle r="25" cx="526.37" cy="70.93" fill="url(&quot;#SvgjsRadialGradient1447&quot;)"></circle><circle r="25" cx="510.34" cy="502.96" fill="url(&quot;#SvgjsRadialGradient1447&quot;)"></circle><circle r="25" cx="483.99" cy="929.84" fill="url(&quot;#SvgjsRadialGradient1447&quot;)"></circle><circle r="25" cx="628.19" cy="273.17" fill="url(&quot;#SvgjsRadialGradient1447&quot;)"></circle><circle r="25" cx="617.7" cy="405.81" fill="url(&quot;#SvgjsRadialGradient1447&quot;)"></circle><circle r="25" cx="592.35" cy="729.76" fill="url(&quot;#SvgjsRadialGradient1447&quot;)"></circle><circle r="25" cx="615.61" cy="835.32" fill="url(&quot;#SvgjsRadialGradient1447&quot;)"></circle><circle r="5" cx="-81.98" cy="711.3" fill="rgba(163, 204, 179, 0.865)"></circle><circle r="5" cx="-60.72" cy="951.61" fill="rgba(163, 204, 179, 0.865)"></circle><circle r="5" cx="39.18" cy="819.99" fill="rgba(163, 204, 179, 0.865)"></circle><circle r="5" cx="61.38" cy="940.51" fill="rgba(163, 204, 179, 0.865)"></circle><circle r="5" cx="192.22" cy="746.03" fill="rgba(163, 204, 179, 0.865)"></circle><circle r="5" cx="144.72" cy="857.73" fill="rgba(163, 204, 179, 0.865)"></circle><circle r="5" cx="192.54" cy="968.18" fill="rgba(163, 204, 179, 0.865)"></circle><circle r="5" cx="261.51" cy="604.7" fill="rgba(163, 204, 179, 0.865)"></circle><circle r="5" cx="280.18" cy="832.64" fill="rgba(163, 204, 179, 0.865)"></circle><circle r="5" cx="392.05" cy="169.51" fill="rgba(163, 204, 179, 0.865)"></circle><circle r="5" cx="406.94" cy="521.46" fill="rgba(163, 204, 179, 0.865)"></circle><circle r="5" cx="411.21" cy="621.74" fill="rgba(163, 204, 179, 0.865)"></circle><circle r="5" cx="373.53" cy="718.11" fill="rgba(163, 204, 179, 0.865)"></circle><circle r="5" cx="393.92" cy="863.17" fill="rgba(163, 204, 179, 0.865)"></circle><circle r="5" cx="513.71" cy="-63.19" fill="rgba(163, 204, 179, 0.865)"></circle><circle r="5" cx="486.06" cy="156.65" fill="rgba(163, 204, 179, 0.865)"></circle><circle r="5" cx="507.37" cy="266.32" fill="rgba(163, 204, 179, 0.865)"></circle><circle r="5" cx="513.24" cy="636.59" fill="rgba(163, 204, 179, 0.865)"></circle><circle r="5" cx="491.06" cy="746.93" fill="rgba(163, 204, 179, 0.865)"></circle><circle r="5" cx="521.99" cy="868.1" fill="rgba(163, 204, 179, 0.865)"></circle><circle r="5" cx="607.92" cy="-37.57" fill="rgba(163, 204, 179, 0.865)"></circle><circle r="5" cx="615.35" cy="36.22" fill="rgba(163, 204, 179, 0.865)"></circle><circle r="5" cx="593.98" cy="175.68" fill="rgba(163, 204, 179, 0.865)"></circle><circle r="5" cx="628.78" cy="485.83" fill="rgba(163, 204, 179, 0.865)"></circle><circle r="5" cx="614.58" cy="590.95" fill="rgba(163, 204, 179, 0.865)"></circle><circle r="5" cx="617.74" cy="947.18" fill="rgba(163, 204, 179, 0.865)"></circle></g><defs><mask id="SvgjsMask1445"><rect width="500" height="900" fill="#ffffff"></rect></mask><linearGradient x1="-20%" y1="11.11%" x2="120%" y2="88.89%" gradientUnits="userSpaceOnUse" id="SvgjsLinearGradient1446"><stop stop-color="#0e2a47" offset="0"></stop><stop stop-color="rgba(0, 0, 0, 1)" offset="1"></stop></linearGradient><radialGradient id="SvgjsRadialGradient1447"><stop stop-color="#ffffff" offset="0.1"></stop><stop stop-color="rgba(2, 116, 47, 0.73)" offset="0.2"></stop><stop stop-color="rgba(2, 116, 47, 0)" offset="1"></stop></radialGradient></defs></svg>